<?xml version="1.0" standalone="no"?>
<!DOCTYPE svg PUBLIC "-//W3C//DTD SVG 20010904//EN"
 "http://www.w3.org/TR/2001/REC-SVG-20010904/DTD/svg10.dtd">
<svg version="1.0" xmlns="http://www.w3.org/2000/svg"
 width="500.000000pt" height="500.000000pt" viewBox="0 0 500.000000 500.000000"
 preserveAspectRatio="xMidYMid meet">
<metadata>
Created by potrace 1.14, written by Peter Selinger 2001-2017
</metadata>
<g transform="translate(0.000000,500.000000) scale(0.100000,-0.100000)"
fill="#000000" stroke="none">
<path d="M1045 3739 c-154 -89 -390 -224 -525 -302 -135 -77 -247 -141 -248
-143 -2 -1 -4 -408 -4 -903 0 -630 3 -905 10 -914 6 -7 30 -23 54 -35 24 -13
50 -27 58 -32 32 -20 203 -120 205 -120 3 0 275 -157 295 -170 8 -6 22 -13 30
-17 8 -4 103 -58 210 -120 107 -62 198 -113 203 -113 7 0 234 130 867 496 74
43 147 84 162 91 15 8 29 22 32 31 7 29 3 692 -5 692 -4 0 -53 -27 -109 -60
-56 -33 -106 -60 -111 -60 -5 0 -9 -4 -9 -10 0 -5 -4 -10 -10 -10 -8 0 -545
-307 -735 -421 l-80 -48 -100 54 c-55 29 -147 79 -205 110 -58 32 -114 62
-126 68 -21 11 -21 17 -21 239 0 125 3 228 5 228 3 0 44 -21 91 -47 47 -25
113 -61 146 -78 33 -18 94 -50 135 -73 74 -39 76 -39 105 -23 110 61 192 105
270 146 50 26 113 60 140 75 28 15 74 40 103 55 29 15 54 31 57 35 5 8 -20 24
-110 75 -22 13 -80 46 -130 75 -49 29 -103 60 -120 70 -16 9 -118 68 -225 130
-107 61 -243 140 -302 174 -59 33 -108 64 -108 67 0 3 28 22 63 43 34 21 123
75 197 121 l135 84 75 -41 c41 -22 104 -57 140 -76 36 -19 108 -58 160 -87 52
-29 104 -56 116 -59 19 -6 48 9 384 191 36 20 90 49 120 66 30 17 67 37 82 44
15 8 29 17 32 21 3 5 -475 285 -713 417 -38 21 -142 82 -176 102 -11 7 -26 15
-34 19 -7 4 -51 29 -98 56 -46 26 -87 48 -91 48 -4 0 -133 -73 -287 -161z"/>
<path d="M3555 3826 c-61 -35 -195 -112 -300 -172 -104 -61 -291 -168 -415
-239 -124 -71 -227 -132 -230 -136 -3 -4 -5 -483 -4 -1065 l0 -1058 30 -16
c16 -9 128 -70 249 -135 121 -65 244 -131 273 -147 29 -15 55 -28 57 -28 3 0
5 468 5 1039 l0 1039 221 137 c248 154 221 147 323 81 28 -18 119 -74 202
-125 l152 -92 0 -1035 c0 -570 2 -1038 5 -1041 3 -2 29 9 59 25 78 43 153 84
243 132 95 51 158 85 243 131 44 24 62 40 62 54 1 11 2 489 3 1062 l2 1042
-110 63 c-60 35 -114 65 -120 67 -5 2 -26 14 -45 26 -19 12 -55 33 -80 47 -25
14 -183 104 -351 201 -169 96 -320 182 -336 190 -28 15 -32 13 -138 -47z"/>
</g>
</svg>
